<svg width="2880" height="1800" viewBox="0 0 2880 1800" fill="none" xmlns="http://www.w3.org/2000/svg">
<g clip-path="url(#clip0_214_121)">
<rect width="2880" height="1800" fill="#103042"/>
<path d="M2880 0H0V1800H2880V0Z" fill="#FF725A"/>
<path d="M0 -816.667C104 -795.555 424 -758.889 624 -690C824 -621.111 1024 -463.333 1200 -403.333C1376 -343.333 1504 -390 1680 -330C1856 -270 2056 -112.222 2256 -43.3331C2456 25.5558 2776 62.2224 2880 83.3335V1800H0V-816.667Z" fill="url(#paint0_linear_214_121)"/>
<path d="M0 -569.167C88 -535.903 360 -427.222 528 -369.583C696 -311.944 864 -254.305 1008 -223.333C1152 -192.361 1248 -214.722 1392 -183.75C1536 -152.778 1696 -86.2498 1872 -37.4998C2048 11.2502 2280 51.1113 2448 108.75C2616 166.389 2808 275.07 2880 308.334V1800H0V-569.167Z" fill="url(#paint1_linear_214_121)"/>
<path d="M0 -321.667C76.5714 -292.42 330.286 -195.793 459.429 -146.19C588.571 -96.5871 653.714 -64.7617 774.857 -24.0474C896 16.6668 1033.14 75.1589 1186.29 98.0954C1339.43 121.032 1540.57 90.6351 1693.71 113.572C1846.86 136.508 1984 177.222 2105.14 235.715C2226.29 294.207 2291.43 414.921 2420.57 464.524C2549.71 514.127 2803.43 521.865 2880 533.334V1800H0V-321.667Z" fill="url(#paint2_linear_214_121)"/>
<path d="M0 -74.167C60.5714 -63.2345 218.286 -57.1035 363.429 -8.57175C508.571 39.96 733.714 177.381 870.857 217.023C1008 256.666 1065.14 207.42 1186.29 229.285C1307.43 251.15 1444.57 290.793 1597.71 348.214C1750.86 405.635 1952 516.389 2105.14 573.809C2258.29 631.23 2387.43 661.984 2516.57 692.738C2645.71 723.492 2819.43 747.4 2880 758.333V1800H0V-74.167Z" fill="url(#paint3_linear_214_121)"/>
<path d="M0 173.333C60.5714 183.73 234.286 206.031 363.429 235.714C492.571 265.397 637.714 295.079 774.857 351.428C912 407.777 1049.14 517.46 1186.29 573.809C1323.43 630.158 1460.57 668.73 1597.71 689.523C1734.86 710.317 1872 660 2009.14 698.571C2146.29 737.143 2275.43 873.492 2420.57 920.952C2565.71 968.412 2803.43 972.936 2880 983.333V1800H0V173.333Z" fill="url(#paint4_linear_214_121)"/>
<path d="M0 420.833C128 444.757 536 507.639 768 564.375C1000 621.111 1152 677.847 1392 761.25C1632 844.652 1960 990.277 2208 1064.79C2456 1139.31 2768 1184.41 2880 1208.33V1800H0V420.833Z" fill="url(#paint5_linear_214_121)"/>
<path d="M0 501.667C76.5714 510.992 330.286 512.302 459.429 557.619C588.571 602.937 653.714 719.365 774.857 773.572C896 827.778 1033.14 864.207 1186.29 882.858C1339.43 901.508 1540.57 866.826 1693.71 885.477C1846.86 904.127 1968 958.334 2105.14 994.762C2242.29 1031.19 2387.43 1058.73 2516.57 1104.05C2645.71 1149.37 2819.43 1239.56 2880 1266.67V1800H0V501.667Z" fill="url(#paint6_linear_214_121)"/>
<path d="M0 915.833C88 945.347 360 1042.78 528 1092.92C696 1143.06 848 1193.19 1008 1216.67C1168 1240.14 1328 1210.28 1488 1233.75C1648 1257.22 1824 1316.25 1968 1357.5C2112 1398.75 2200 1431.11 2352 1481.25C2504 1531.39 2792 1628.82 2880 1658.33V1800H0V915.833Z" fill="url(#paint7_linear_214_121)"/>
</g>
<defs>
<linearGradient id="paint0_linear_214_121" x1="1440" y1="-816.667" x2="1440" y2="1800" gradientUnits="userSpaceOnUse">
<stop stop-color="#AC2C24"/>
<stop offset="1" stop-color="#FF5B27"/>
</linearGradient>
<linearGradient id="paint1_linear_214_121" x1="1440" y1="-569.167" x2="1440" y2="1800" gradientUnits="userSpaceOnUse">
<stop stop-color="#992328"/>
<stop offset="1" stop-color="#CA3B20"/>
</linearGradient>
<linearGradient id="paint2_linear_214_121" x1="1440" y1="-321.667" x2="1440" y2="1800" gradientUnits="userSpaceOnUse">
<stop stop-color="#8C212C"/>
<stop offset="1" stop-color="#AA2624"/>
</linearGradient>
<linearGradient id="paint3_linear_214_121" x1="1440" y1="-74.167" x2="1440" y2="1800" gradientUnits="userSpaceOnUse">
<stop stop-color="#620C0E"/>
<stop offset="1" stop-color="#C33C55"/>
</linearGradient>
<linearGradient id="paint4_linear_214_121" x1="1440" y1="173.333" x2="1440" y2="1800" gradientUnits="userSpaceOnUse">
<stop stop-color="#6D1212"/>
<stop offset="1" stop-color="#5C090C"/>
</linearGradient>
<linearGradient id="paint5_linear_214_121" x1="1440" y1="420.833" x2="1440" y2="1800" gradientUnits="userSpaceOnUse">
<stop stop-color="#4A0A0A"/>
<stop offset="1" stop-color="#621414"/>
</linearGradient>
<linearGradient id="paint6_linear_214_121" x1="1440" y1="501.667" x2="1440" y2="1800" gradientUnits="userSpaceOnUse">
<stop stop-color="#260000"/>
<stop offset="1" stop-color="#3A0505"/>
</linearGradient>
<linearGradient id="paint7_linear_214_121" x1="1440" y1="915.833" x2="1440" y2="1800" gradientUnits="userSpaceOnUse">
<stop stop-color="#0D0000"/>
<stop offset="1" stop-color="#1A0303"/>
</linearGradient>
<clipPath id="clip0_214_121">
<rect width="2880" height="1800" fill="white"/>
</clipPath>
</defs>
</svg>
