<svg width="2880" height="1800" viewBox="0 0 2880 1800" fill="none" xmlns="http://www.w3.org/2000/svg">
<g clip-path="url(#clip0_214_101)">
<path d="M2880 0H0V1800H2880V0Z" fill="#031E10"/>
<path d="M0 -75C128 -67 536 -35 768 -27C1000 -19 1168 -27 1392 -27C1616 -27 1864 -19 2112 -27C2360 -35 2752 -67 2880 -75V1800H0V-75Z" fill="url(#paint0_linear_214_101)"/>
<path d="M0 210C88 221 344 262 528 276C712 290 912 288 1104 294C1296 300 1472 306 1680 312C1888 318 2152 332 2352 330C2552 328 2792 305 2880 300V1800H0V210Z" fill="url(#paint1_linear_214_101)"/>
<path d="M0 195C88 193 328 179 528 183C728 187 1008 191 1200 219C1392 247 1488 323 1680 351C1872 379 2152 383 2352 387C2552 391 2792 377 2880 375V1800H0V195Z" fill="url(#paint2_linear_214_101)"/>
<path d="M0 480C112 499.25 440 565 672 595.5C904 626 1152 640.5 1392 663C1632 685.5 1864 716 2112 730.5C2360 745 2752 746.75 2880 750V1800H0V480Z" fill="url(#paint3_linear_214_101)"/>
<path d="M0 465C88 485 344 553 528 585C712 617 912 649 1104 657C1296 665 1488 625 1680 633C1872 641 2056 673 2256 705C2456 737 2776 805 2880 825V1800H0V465Z" fill="url(#paint4_linear_214_101)"/>
<path d="M0 600C88 623 344 700 528 738C712 776 896 814 1104 828C1312 842 1584 808 1776 822C1968 836 2072 874 2256 912C2440 950 2776 1027 2880 1050V1800H0V600Z" fill="url(#paint5_linear_214_101)"/>
<path d="M0 735C104 745 440 767 624 795C808 823 912 851 1104 903C1296 955 1584 1055 1776 1107C1968 1159 2072 1187 2256 1215C2440 1243 2776 1265 2880 1275V1800H0V735Z" fill="url(#paint6_linear_214_101)"/>
<path d="M0 1020C88 1049 328 1160 528 1194C728 1228 992 1182 1200 1224C1408 1266 1600 1388 1776 1446C1952 1504 2072 1538 2256 1572C2440 1606 2776 1637 2880 1650V1800H0V1020Z" fill="url(#paint7_linear_214_101)"/>
</g>
<defs>
<linearGradient id="paint0_linear_214_101" x1="1440" y1="-75" x2="1440" y2="1800" gradientUnits="userSpaceOnUse">
<stop stop-color="#0A3A22"/>
<stop offset="1" stop-color="#062812"/>
</linearGradient>
<linearGradient id="paint1_linear_214_101" x1="1440" y1="210" x2="1440" y2="1800" gradientUnits="userSpaceOnUse">
<stop stop-color="#1F6B42"/>
<stop offset="1" stop-color="#155330"/>
</linearGradient>
<linearGradient id="paint2_linear_214_101" x1="1440" y1="182.285" x2="1440" y2="1800" gradientUnits="userSpaceOnUse">
<stop stop-color="#388E5E"/>
<stop offset="1" stop-color="#2C7A4F"/>
</linearGradient>
<linearGradient id="paint3_linear_214_101" x1="1440" y1="480" x2="1440" y2="1800" gradientUnits="userSpaceOnUse">
<stop stop-color="#52B87F"/>
<stop offset="1" stop-color="#43A36B"/>
</linearGradient>
<linearGradient id="paint4_linear_214_101" x1="1440" y1="465" x2="1440" y2="1800" gradientUnits="userSpaceOnUse">
<stop stop-color="#7DD3A8"/>
<stop offset="1" stop-color="#65C592"/>
</linearGradient>
<linearGradient id="paint5_linear_214_101" x1="1440" y1="600" x2="1440" y2="1800" gradientUnits="userSpaceOnUse">
<stop stop-color="#A8E6CF"/>
<stop offset="1" stop-color="#92DCBB"/>
</linearGradient>
<linearGradient id="paint6_linear_214_101" x1="1440" y1="735" x2="1440" y2="1800" gradientUnits="userSpaceOnUse">
<stop stop-color="#C8F5DC"/>
<stop offset="1" stop-color="#B8EFD0"/>
</linearGradient>
<linearGradient id="paint7_linear_214_101" x1="1440" y1="1020" x2="1440" y2="1800" gradientUnits="userSpaceOnUse">
<stop stop-color="white"/>
<stop offset="1" stop-color="#AAFFD1"/>
</linearGradient>
<clipPath id="clip0_214_101">
<rect width="2880" height="1800" fill="white"/>
</clipPath>
</defs>
</svg>
